<svg id="Layer_1" enable-background="new 0 0 512 512" height="512" viewBox="0 0 512 512" width="512" xmlns="http://www.w3.org/2000/svg"><path d="m421.21 148c.021.06.04.13.05.19 37.31 2.69 66.74 33.82 66.74 71.81 0 39.76-32.24 72-72 72h-368c-13.25 0-24-10.75-24-24s10.75-24 24-24h40.57c-4.9-33.663 21.28-64 55.43-64 0-47.91 45.994-82.413 91.92-69.21 38.226-52.463 114.383-57.419 159.12-10.79h68.96c13.25 0 24 10.75 24 24s-10.75 24-24 24c-46.055 0-42.817-.103-42.74.19" fill="#add9ff"/><path d="m246.61 98.34c-3.88 3.84-7.46 8.01-10.69 12.45-46.024-13.231-91.92 21.386-91.92 69.21-24.82 0-45.86 16.14-53.21 38.5-39.34-17.37-66.79-56.73-66.79-102.5 0-61.86 50.14-112 112-112 55.85 0 102.15 40.87 110.61 94.34z" fill="#ffdf81"/><path d="m238.01 69.7-26.99 23.14c-43.727-6.697-83.02 27.058-83.02 71.16-24.82 0-45.86 16.14-53.21 38.5l-1.8 6.11c4.846 3.352 11.213 6.982 17.8 9.89 7.35-22.36 28.39-38.5 53.21-38.5 0-47.652 45.753-82.482 91.92-69.21 3.23-4.44 6.811-8.61 10.69-12.45-1.615-10.239-4.74-20.29-8.6-28.64z" fill="#ffcd76"/><path d="m222.81 45.23c-72.335-59.105-182.81-8.091-182.81 86.77 0 26.85 9.45 51.49 25.19 70.78-25.14-20.54-41.19-51.78-41.19-86.78 0-61.86 50.14-112 112-112 35.02 0 66.28 16.07 86.81 41.23z" fill="#f9ecb4"/><g fill="#5989b3"><path d="m312 412h-304c-4.418 0-8-3.582-8-8s3.582-8 8-8h304c13.233 0 24-10.767 24-24s-10.767-24-24-24-24 10.767-24 24c0 4.418-3.582 8-8 8s-8-3.582-8-8c0-22.056 17.944-40 40-40s40 17.944 40 40-17.944 40-40 40z"/><path d="m472 508c-22.056 0-40-17.944-40-40 0-4.418 3.582-8 8-8s8 3.582 8 8c0 13.233 10.767 24 24 24s24-10.767 24-24-10.767-24-24-24h-304c-4.418 0-8-3.582-8-8s3.582-8 8-8h304c22.056 0 40 17.944 40 40s-17.944 40-40 40z"/><path d="m392 476h-288c-4.418 0-8-3.582-8-8s3.582-8 8-8h288c4.418 0 8 3.582 8 8s-3.582 8-8 8z"/><path d="m72 476c-4.418 0-8-3.578-8-8 0-4.418 3.577-8 8-8 4.415 0 8 3.575 8 8 0 4.417-3.578 8-8 8z"/><path d="m248 380h-176c-4.418 0-8-3.582-8-8s3.582-8 8-8h176c4.418 0 8 3.582 8 8s-3.582 8-8 8z"/><circle cx="40" cy="372" r="8"/><path d="m440 380h-64c-4.418 0-8-3.582-8-8s3.582-8 8-8h64c4.418 0 8 3.582 8 8s-3.582 8-8 8z"/><path d="m472 380c-4.487 0-8-3.653-8-8 0-4.357 3.524-8 8-8 4.419 0 8 3.579 8 8 0 4.415-3.576 8-8 8z"/></g><circle cx="72" cy="172" fill="#ffcd76" r="8"/><circle cx="60" cy="160" fill="#ffcd76" r="4"/><path d="m40 268c0 13.25 10.75 24 24 24h-16c-13.25 0-24-10.75-24-24s10.75-24 24-24h16c-13.25 0-24 10.75-24 24z" fill="#d6ecff"/><path d="m224.03 108.44c-36.01 3.96-64.03 34.49-64.03 71.56-34.154 0-60.329 30.341-55.43 64h-16c-4.9-33.663 21.28-64 55.43-64 0-42.69 37.022-76.283 80.03-71.56z" fill="#d6ecff"/></svg>