<?xml version="1.0" encoding="iso-8859-1"?>
<!-- Generator: Adobe Illustrator 19.0.0, SVG Export Plug-In . SVG Version: 6.00 Build 0)  -->
<svg version="1.1" id="Capa_1" xmlns="http://www.w3.org/2000/svg" xmlns:xlink="http://www.w3.org/1999/xlink" x="0px" y="0px"
	 viewBox="0 0 480 480" style="enable-background:new 0 0 480 480;" xml:space="preserve">
<linearGradient id="SVGID_1_" gradientUnits="userSpaceOnUse" x1="-15.8579" y1="557.654" x2="-15.8579" y2="622.706" gradientTransform="matrix(8 0 0 -8 455 4941)">
	<stop  offset="0" style="stop-color:#006DF0"/>
	<stop  offset="1" style="stop-color:#00E7F0"/>
</linearGradient>
<path style="fill:url(#SVGID_1_);" d="M360,248c-4.418,0-8-3.582-8-8c-0.006-41.394-22.842-79.41-59.384-98.856
	c-3.929-2.021-5.475-6.845-3.454-10.774s6.845-5.475,10.774-3.454c0.073,0.037,0.145,0.076,0.216,0.115
	C341.911,149.252,368.004,192.698,368,240C368,244.418,364.418,248,360,248z"/>
<g>
	
		<linearGradient id="SVGID_2_" gradientUnits="userSpaceOnUse" x1="-25.3809" y1="557.654" x2="-25.3809" y2="622.706" gradientTransform="matrix(8 0 0 -8 455 4941)">
		<stop  offset="0" style="stop-color:#006DF0"/>
		<stop  offset="1" style="stop-color:#00E7F0"/>
	</linearGradient>
	<path style="fill:url(#SVGID_2_);" d="M263.92,130.4c-0.537-0.002-1.073-0.056-1.6-0.16c-7.347-1.487-14.824-2.238-22.32-2.24
		c-4.418,0-8-3.582-8-8s3.582-8,8-8c8.563-0.002,17.104,0.853,25.496,2.552c4.33,0.879,7.127,5.102,6.248,9.432
		c-0.758,3.731-4.04,6.412-7.848,6.408L263.92,130.4z"/>
	
		<linearGradient id="SVGID_3_" gradientUnits="userSpaceOnUse" x1="-26.875" y1="557.654" x2="-26.875" y2="622.706" gradientTransform="matrix(8 0 0 -8 455 4941)">
		<stop  offset="0" style="stop-color:#006DF0"/>
		<stop  offset="1" style="stop-color:#00E7F0"/>
	</linearGradient>
	<path style="fill:url(#SVGID_3_);" d="M240,64c-4.418,0-8-3.582-8-8V8c0-4.418,3.582-8,8-8s8,3.582,8,8v48
		C248,60.418,244.418,64,240,64z"/>
	
		<linearGradient id="SVGID_4_" gradientUnits="userSpaceOnUse" x1="-36.4452" y1="557.654" x2="-36.4452" y2="622.706" gradientTransform="matrix(8 0 0 -8 455 4941)">
		<stop  offset="0" style="stop-color:#006DF0"/>
		<stop  offset="1" style="stop-color:#00E7F0"/>
	</linearGradient>
	<path style="fill:url(#SVGID_4_);" d="M169.6,78.008c-3.238,0.004-6.16-1.945-7.4-4.936l-12.24-29.6
		c-1.78-4.044,0.056-8.765,4.1-10.545c4.044-1.78,8.765,0.056,10.545,4.1c0.046,0.105,0.09,0.21,0.131,0.317l12.248,29.6
		c1.692,4.081-0.245,8.762-4.326,10.454C171.689,77.8,170.649,78.007,169.6,78.008z"/>
	
		<linearGradient id="SVGID_5_" gradientUnits="userSpaceOnUse" x1="-49.9701" y1="557.654" x2="-49.9701" y2="622.706" gradientTransform="matrix(8 0 0 -8 455 4941)">
		<stop  offset="0" style="stop-color:#006DF0"/>
		<stop  offset="1" style="stop-color:#00E7F0"/>
	</linearGradient>
	<path style="fill:url(#SVGID_5_);" d="M40.448,330.664c-4.418,0.007-8.006-3.569-8.013-7.987c-0.005-3.241,1.946-6.165,4.941-7.405
		l29.6-12.248c4.082-1.692,8.764,0.246,10.456,4.328c1.692,4.082-0.246,8.764-4.328,10.456l0,0l-29.6,12.24
		C42.536,330.452,41.497,330.661,40.448,330.664z"/>
	
		<linearGradient id="SVGID_6_" gradientUnits="userSpaceOnUse" x1="-36.442" y1="557.654" x2="-36.442" y2="622.706" gradientTransform="matrix(8 0 0 -8 455 4941)">
		<stop  offset="0" style="stop-color:#006DF0"/>
		<stop  offset="1" style="stop-color:#00E7F0"/>
	</linearGradient>
	<path style="fill:url(#SVGID_6_);" d="M157.336,447.56c-1.048-0.003-2.086-0.209-3.056-0.608c-4.082-1.691-6.02-6.371-4.329-10.453
		c0-0.001,0.001-0.002,0.001-0.003l12.24-29.6c1.692-4.082,6.374-6.02,10.456-4.328s6.02,6.374,4.328,10.456l0,0l-12.248,29.6
		C163.489,445.613,160.571,447.561,157.336,447.56z"/>
	
		<linearGradient id="SVGID_7_" gradientUnits="userSpaceOnUse" x1="-17.308" y1="557.654" x2="-17.308" y2="622.706" gradientTransform="matrix(8 0 0 -8 455 4941)">
		<stop  offset="0" style="stop-color:#006DF0"/>
		<stop  offset="1" style="stop-color:#00E7F0"/>
	</linearGradient>
	<path style="fill:url(#SVGID_7_);" d="M322.664,447.56c-3.235,0.001-6.153-1.947-7.392-4.936l-12.248-29.6
		c-1.692-4.082,0.246-8.764,4.328-10.456s8.764,0.246,10.456,4.328l0,0l12.24,29.6c1.693,4.081-0.243,8.762-4.325,10.455
		c-0.001,0-0.002,0.001-0.003,0.001C324.75,447.351,323.712,447.557,322.664,447.56z"/>
	
		<linearGradient id="SVGID_8_" gradientUnits="userSpaceOnUse" x1="-3.7798" y1="557.654" x2="-3.7798" y2="622.706" gradientTransform="matrix(8 0 0 -8 455 4941)">
		<stop  offset="0" style="stop-color:#006DF0"/>
		<stop  offset="1" style="stop-color:#00E7F0"/>
	</linearGradient>
	<path style="fill:url(#SVGID_8_);" d="M439.552,330.664c-1.049-0.003-2.088-0.212-3.056-0.616l-29.6-12.24
		c-4.082-1.692-6.02-6.374-4.328-10.456s6.374-6.02,10.456-4.328l29.6,12.248c4.082,1.69,6.022,6.369,4.333,10.451
		C445.717,328.718,442.793,330.669,439.552,330.664z"/>
	
		<linearGradient id="SVGID_9_" gradientUnits="userSpaceOnUse" x1="-3.7675" y1="557.654" x2="-3.7675" y2="622.706" gradientTransform="matrix(8 0 0 -8 455 4941)">
		<stop  offset="0" style="stop-color:#006DF0"/>
		<stop  offset="1" style="stop-color:#00E7F0"/>
	</linearGradient>
	<path style="fill:url(#SVGID_9_);" d="M410,177.6c-4.418,0.018-8.014-3.549-8.032-7.968c-0.013-3.256,1.948-6.195,4.96-7.432
		l29.6-12.24c4.044-1.78,8.765,0.056,10.545,4.1c1.78,4.044-0.056,8.765-4.1,10.545c-0.105,0.046-0.21,0.09-0.317,0.131
		l-29.6,12.248C412.088,177.388,411.049,177.597,410,177.6z"/>
	
		<linearGradient id="SVGID_10_" gradientUnits="userSpaceOnUse" x1="-17.3046" y1="557.654" x2="-17.3046" y2="622.706" gradientTransform="matrix(8 0 0 -8 455 4941)">
		<stop  offset="0" style="stop-color:#006DF0"/>
		<stop  offset="1" style="stop-color:#00E7F0"/>
	</linearGradient>
	<path style="fill:url(#SVGID_10_);" d="M310.4,78.008c-4.418-0.003-7.997-3.588-7.994-8.006c0.001-1.049,0.208-2.089,0.61-3.058
		l12.248-29.6c1.605-4.117,6.243-6.153,10.359-4.548c4.117,1.605,6.153,6.243,4.548,10.359c-0.042,0.106-0.085,0.212-0.131,0.317
		l-12.24,29.6C316.56,76.063,313.638,78.012,310.4,78.008z"/>
	
		<linearGradient id="SVGID_11_" gradientUnits="userSpaceOnUse" x1="-52.875" y1="557.654" x2="-52.875" y2="622.706" gradientTransform="matrix(8 0 0 -8 455 4941)">
		<stop  offset="0" style="stop-color:#006DF0"/>
		<stop  offset="1" style="stop-color:#00E7F0"/>
	</linearGradient>
	<path style="fill:url(#SVGID_11_);" d="M56,248H8c-4.418,0-8-3.582-8-8s3.582-8,8-8h48c4.418,0,8,3.582,8,8S60.418,248,56,248z"/>
	
		<linearGradient id="SVGID_12_" gradientUnits="userSpaceOnUse" x1="-45.2538" y1="557.654" x2="-45.2538" y2="622.706" gradientTransform="matrix(8 0 0 -8 455 4941)">
		<stop  offset="0" style="stop-color:#006DF0"/>
		<stop  offset="1" style="stop-color:#00E7F0"/>
	</linearGradient>
	<path style="fill:url(#SVGID_12_);" d="M75.952,412.048c-4.418-0.001-7.999-3.583-7.998-8.002c0-2.121,0.843-4.154,2.342-5.654
		l33.936-33.936c3.069-3.178,8.134-3.266,11.312-0.196c3.178,3.07,3.266,8.134,0.196,11.312c-0.064,0.067-0.13,0.132-0.196,0.196
		L81.6,409.704C80.102,411.202,78.071,412.045,75.952,412.048z"/>
	
		<linearGradient id="SVGID_13_" gradientUnits="userSpaceOnUse" x1="-26.875" y1="557.654" x2="-26.875" y2="622.706" gradientTransform="matrix(8 0 0 -8 455 4941)">
		<stop  offset="0" style="stop-color:#006DF0"/>
		<stop  offset="1" style="stop-color:#00E7F0"/>
	</linearGradient>
	<path style="fill:url(#SVGID_13_);" d="M240,480c-4.418,0-8-3.582-8-8v-48c0-4.418,3.582-8,8-8s8,3.582,8,8v48
		C248,476.418,244.418,480,240,480z"/>
	
		<linearGradient id="SVGID_14_" gradientUnits="userSpaceOnUse" x1="-0.875" y1="557.654" x2="-0.875" y2="622.706" gradientTransform="matrix(8 0 0 -8 455 4941)">
		<stop  offset="0" style="stop-color:#006DF0"/>
		<stop  offset="1" style="stop-color:#00E7F0"/>
	</linearGradient>
	<path style="fill:url(#SVGID_14_);" d="M472,248h-48c-4.418,0-8-3.582-8-8s3.582-8,8-8h48c4.418,0,8,3.582,8,8S476.418,248,472,248
		z"/>
	
		<linearGradient id="SVGID_15_" gradientUnits="userSpaceOnUse" x1="-8.475" y1="557.654" x2="-8.475" y2="622.706" gradientTransform="matrix(8 0 0 -8 455 4941)">
		<stop  offset="0" style="stop-color:#006DF0"/>
		<stop  offset="1" style="stop-color:#00E7F0"/>
	</linearGradient>
	<path style="fill:url(#SVGID_15_);" d="M370.112,117.888c-4.418-0.001-7.999-3.583-7.998-8.002c0-2.121,0.843-4.154,2.342-5.654
		L398.4,70.296c2.992-3.251,8.053-3.461,11.304-0.469c3.251,2.992,3.461,8.053,0.469,11.304c-0.15,0.163-0.306,0.319-0.469,0.469
		l-33.936,33.936C374.269,117.039,372.235,117.885,370.112,117.888L370.112,117.888z"/>
	
		<linearGradient id="SVGID_16_" gradientUnits="userSpaceOnUse" x1="-49.9838" y1="557.654" x2="-49.9838" y2="622.706" gradientTransform="matrix(8 0 0 -8 455 4941)">
		<stop  offset="0" style="stop-color:#006DF0"/>
		<stop  offset="1" style="stop-color:#00E7F0"/>
	</linearGradient>
	<path style="fill:url(#SVGID_16_);" d="M73.072,162.192l-29.6-12.24c-4.044-1.78-8.765,0.056-10.545,4.1
		c-1.78,4.044,0.056,8.765,4.1,10.545c0.105,0.046,0.21,0.09,0.317,0.131l29.6,12.248c4.082,1.692,8.764-0.246,10.456-4.328
		C79.092,168.566,77.154,163.884,73.072,162.192z"/>
</g>
<linearGradient id="SVGID_17_" gradientUnits="userSpaceOnUse" x1="-26.875" y1="557.6373" x2="-26.875" y2="622.6893" gradientTransform="matrix(8 0 0 -8 455 4941)">
	<stop  offset="0" style="stop-color:#006DF0"/>
	<stop  offset="1" style="stop-color:#00E7F0"/>
</linearGradient>
<path style="fill:url(#SVGID_17_);" d="M477.656,466.344l-119.2-119.2c59.141-65.455,54.022-166.459-11.433-225.6
	c-60.815-54.949-153.352-54.949-214.167,0l-119.2-119.2C10.478-0.725,5.413-0.637,2.344,2.541c-2.994,3.1-2.994,8.015,0,11.115
	l119.2,119.2c-59.141,65.455-54.022,166.459,11.433,225.6c60.815,54.949,153.352,54.949,214.167,0l119.2,119.2
	c3.178,3.07,8.242,2.982,11.312-0.196C480.651,474.36,480.651,469.444,477.656,466.344z M240,96
	c79.392-0.159,143.881,64.072,144.04,143.464c0.071,35.58-13.055,69.923-36.84,96.385L144.152,132.84
	C170.451,109.137,204.596,96.014,240,96L240,96z M240,384c-79.392,0.137-143.863-64.112-144-143.504
	c-0.061-35.566,13.064-69.893,36.84-96.344L335.848,347.2C309.543,370.888,275.399,383.997,240,384z"/>
<g>
</g>
<g>
</g>
<g>
</g>
<g>
</g>
<g>
</g>
<g>
</g>
<g>
</g>
<g>
</g>
<g>
</g>
<g>
</g>
<g>
</g>
<g>
</g>
<g>
</g>
<g>
</g>
<g>
</g>
</svg>
