<?xml version="1.0" encoding="iso-8859-1"?>
<!-- Generator: Adobe Illustrator 19.0.0, SVG Export Plug-In . SVG Version: 6.00 Build 0)  -->
<svg version="1.1" id="Layer_1" xmlns="http://www.w3.org/2000/svg" xmlns:xlink="http://www.w3.org/1999/xlink" x="0px" y="0px"
	 viewBox="0 0 512 512" style="enable-background:new 0 0 512 512;" xml:space="preserve">
<path style="fill:#F9BC35;" d="M122.435,233.739L122.435,233.739c-64.545,0-116.87-52.324-116.87-116.87l0,0
	C5.565,52.324,57.889,0,122.435,0l0,0c64.545,0,116.87,52.324,116.87,116.87l0,0C239.304,181.415,186.98,233.739,122.435,233.739z"
	/>
<g>
	<path style="fill:#5AF1FF;" d="M155.826,512c-9.217,0-16.696-7.479-16.696-16.696v-44.522c0-9.217,7.479-16.696,16.696-16.696
		s16.696,7.479,16.696,16.696v44.522C172.522,504.521,165.043,512,155.826,512z"/>
	<path style="fill:#5AF1FF;" d="M155.826,400.696c-9.217,0-16.696-7.479-16.696-16.696v-33.391c0-9.217,7.479-16.696,16.696-16.696
		s16.696,7.479,16.696,16.696V384C172.522,393.217,165.043,400.696,155.826,400.696z"/>
	<path style="fill:#5AF1FF;" d="M222.609,422.957c-9.217,0-16.696-7.479-16.696-16.696v-55.652c0-9.217,7.479-16.696,16.696-16.696
		s16.696,7.479,16.696,16.696v55.652C239.304,415.478,231.826,422.957,222.609,422.957z"/>
</g>
<path style="fill:#51DAE6;" d="M289.391,512c-9.217,0-16.696-7.479-16.696-16.696v-44.522c0-9.217,7.479-16.696,16.696-16.696
	c9.217,0,16.696,7.479,16.696,16.696v44.522C306.087,504.521,298.608,512,289.391,512z"/>
<path style="fill:#5AF1FF;" d="M222.609,512c-9.217,0-16.696-7.479-16.696-16.696v-22.261c0-9.217,7.479-16.696,16.696-16.696
	s16.696,7.479,16.696,16.696v22.261C239.304,504.521,231.826,512,222.609,512z"/>
<g>
	<path style="fill:#51DAE6;" d="M356.174,512c-9.217,0-16.696-7.479-16.696-16.696v-22.261c0-9.217,7.479-16.696,16.696-16.696
		c9.217,0,16.696,7.479,16.696,16.696v22.261C372.87,504.521,365.391,512,356.174,512z"/>
	<path style="fill:#51DAE6;" d="M289.391,400.696c-9.217,0-16.696-7.479-16.696-16.696v-33.391c0-9.217,7.479-16.696,16.696-16.696
		c9.217,0,16.696,7.479,16.696,16.696V384C306.087,393.217,298.608,400.696,289.391,400.696z"/>
	<path style="fill:#51DAE6;" d="M356.174,422.957c-9.217,0-16.696-7.479-16.696-16.696v-55.652c0-9.217,7.479-16.696,16.696-16.696
		c9.217,0,16.696,7.479,16.696,16.696v55.652C372.87,415.478,365.391,422.957,356.174,422.957z"/>
</g>
<path style="fill:#E6EEFF;" d="M439.096,145.03c-1.113-37.176-15.471-71.903-41.071-98.616C369.864,16.918,330.24,0,289.391,0
	C277.927,0,266.685,1.336,256,3.784C194.003,17.92,146.477,70.456,139.91,135.012c-5.899-1.002-11.687-1.447-17.475-1.447
	c-64.445,0-116.87,52.424-116.87,116.87s52.424,116.87,116.87,116.87h267.13c64.445,0,116.87-52.424,116.87-116.87
	C506.435,205.134,479.833,164.174,439.096,145.03z"/>
<path style="fill:#DAE2F2;" d="M506.435,250.435c0,64.445-52.424,116.87-116.87,116.87H256V3.784C266.685,1.336,277.927,0,289.391,0
	c40.849,0,80.473,16.918,108.633,46.414c25.6,26.713,39.958,61.44,41.071,98.616C479.833,164.174,506.435,205.134,506.435,250.435z"
	/>
<g>
</g>
<g>
</g>
<g>
</g>
<g>
</g>
<g>
</g>
<g>
</g>
<g>
</g>
<g>
</g>
<g>
</g>
<g>
</g>
<g>
</g>
<g>
</g>
<g>
</g>
<g>
</g>
<g>
</g>
</svg>
