<svg id="Layer_3" enable-background="new 0 0 64 64" height="512" viewBox="0 0 64 64" width="512" xmlns="http://www.w3.org/2000/svg"><path d="m57 10c-.359 0-.707.041-1.045.113-.445-4.554-4.284-8.113-8.955-8.113s-8.51 3.559-8.955 8.113c-.338-.072-.686-.113-1.045-.113-2.761 0-5 2.239-5 5s2.239 5 5 5c1.717 0 3.231-.867 4.131-2.186 1.576 1.359 3.624 2.186 5.869 2.186s4.293-.827 5.869-2.186c.9 1.319 2.414 2.186 4.131 2.186 2.761 0 5-2.239 5-5s-2.239-5-5-5z" fill="#a1cdfb"/><path d="m27 10c-.359 0-.707.041-1.045.113-.445-4.554-4.284-8.113-8.955-8.113s-8.51 3.559-8.955 8.113c-.338-.072-.686-.113-1.045-.113-2.761 0-5 2.239-5 5s2.239 5 5 5c1.717 0 3.231-.867 4.131-2.186 1.576 1.359 3.624 2.186 5.869 2.186s4.293-.827 5.869-2.186c.9 1.319 2.414 2.186 4.131 2.186 2.761 0 5-2.239 5-5s-2.239-5-5-5z" fill="#a1cdfb"/><g fill="#c7e2fc"><path d="m42 14c-.359 0-.707.041-1.045.113-.445-4.554-4.284-8.113-8.955-8.113s-8.51 3.559-8.955 8.113c-.338-.072-.686-.113-1.045-.113-2.761 0-5 2.239-5 5s2.239 5 5 5c1.717 0 3.231-.867 4.131-2.186 1.576 1.359 3.624 2.186 5.869 2.186s4.293-.827 5.869-2.186c.9 1.319 2.414 2.186 4.131 2.186 2.761 0 5-2.239 5-5s-2.239-5-5-5z"/><circle cx="60" cy="26" r="2"/><circle cx="50" cy="33" r="2"/><circle cx="58" cy="40" r="2"/><circle cx="4" cy="26" r="2"/><circle cx="14" cy="33" r="2"/><circle cx="6" cy="40" r="2"/></g><path d="m41.293 31.293-1.793 1.793-1.793-1.793-1.414 1.414 1.793 1.793-1.241 1.241-3.845-2.307v-2.434h2v-2h-2v-2h-2v2h-2v2h2v2.434l-3.845 2.307-1.241-1.241 1.793-1.793-1.414-1.414-1.793 1.793-1.793-1.793-1.414 1.414 1.793 1.793-1.793 1.793 1.414 1.414 1.793-1.793 1.5 1.5v3.172l-1.5 1.5-1.793-1.793-1.414 1.414 1.793 1.793-1.793 1.793 1.414 1.414 1.793-1.793 1.793 1.793 1.414-1.414-1.793-1.793 1.241-1.241 3.845 2.307v2.434h-2v2h2v2h2v-2h2v-2h-2v-2.434l3.845-2.307 1.241 1.241-1.793 1.793 1.414 1.414 1.793-1.793 1.793 1.793 1.414-1.414-1.793-1.793 1.793-1.793-1.414-1.414-1.793 1.793-1.5-1.5v-3.172l1.5-1.5 1.793 1.793 1.414-1.414-1.793-1.793 1.793-1.793zm-5.293 9.141-4 2.4-4-2.4v-2.867l4-2.4 4 2.4z" fill="#a1cdfb"/><path d="m62 52h-3.586l2.293-2.293-1.414-1.414-3.707 3.707h-1.586v-1.586l3.707-3.707-1.414-1.414-2.293 2.293v-3.586h-2v3.586l-2.293-2.293-1.414 1.414 3.707 3.707v1.586h-1.586l-3.707-3.707-1.414 1.414 2.293 2.293h-3.586v2h3.586l-2.293 2.293 1.414 1.414 3.707-3.707h1.586v1.586l-3.707 3.707 1.414 1.414 2.293-2.293v3.586h2v-3.586l2.293 2.293 1.414-1.414-3.707-3.707v-1.586h1.586l3.707 3.707 1.414-1.414-2.293-2.293h3.586z" fill="#a1cdfb"/><path d="m18.707 49.707-1.414-1.414-3.707 3.707h-1.586v-1.586l3.707-3.707-1.414-1.414-2.293 2.293v-3.586h-2v3.586l-2.293-2.293-1.414 1.414 3.707 3.707v1.586h-1.586l-3.707-3.707-1.414 1.414 2.293 2.293h-3.586v2h3.586l-2.293 2.293 1.414 1.414 3.707-3.707h1.586v1.586l-3.707 3.707 1.414 1.414 2.293-2.293v3.586h2v-3.586l2.293 2.293 1.414-1.414-3.707-3.707v-1.586h1.586l3.707 3.707 1.414-1.414-2.293-2.293h3.586v-2h-3.586z" fill="#a1cdfb"/></svg>