<svg id="Capa_1" enable-background="new 0 0 497 497" height="512" viewBox="0 0 497 497" width="512" xmlns="http://www.w3.org/2000/svg"><g><path d="m404.74 131.715h-69.507c-2.9 0-5.362-2.08-5.897-4.931-10.155-54.171-57.967-95.069-115.225-94.463-63.744.676-114.711 53.371-114.711 117.118v9.409c0 3.314-2.686 6-6 6h-17.914c-41.107 0-75.179 32.879-75.484 73.984-.307 41.432 33.187 75.115 74.548 75.115h331.333c50.552 0 91.49-41.168 91.114-91.807-.372-50.239-42.016-90.425-92.257-90.425z" fill="#c8effe"/><g fill="#99e2fc"><path d="m404.74 131.715h-23c50.241 0 91.885 40.186 92.258 90.426.375 50.639-40.562 91.808-91.114 91.808h23c50.552 0 91.49-41.168 91.114-91.808-.373-50.24-42.017-90.426-92.258-90.426z"/><path d="m306.336 126.784c.534 2.851 2.996 4.931 5.897 4.931h23c-2.9 0-5.362-2.08-5.897-4.931-10.155-54.171-57.967-95.069-115.225-94.463-3.438.036-6.835.233-10.192.566 51.461 5.091 93.029 43.821 102.417 93.897z"/></g><path d="m149.1 164.849c4.143 0 7.5-3.357 7.5-7.5s-3.357-7.5-7.5-7.5h-49.7v9c0 3.314-2.686 6-6 6h-17.914c-.007 0-.013 0-.019 0z" fill="#99e2fc"/><path d="m190.517 247.682-38.982 124.744c-1.207 3.863 1.679 7.79 5.727 7.79h66.988c3.903 0 6.768 3.668 5.821 7.455l-17.383 69.531c-1.501 6.003 5.966 10.073 10.198 5.559l98.976-105.575c3.592-3.832.875-10.104-4.377-10.104h-44.093c-4.095 0-6.987-4.012-5.692-7.897l30.501-91.503z" fill="#ffd900"/><g fill="#fb0"><path d="m250.391 347.082h23c-4.095 0-6.987-4.012-5.692-7.897l30.501-91.502h-23l-30.501 91.502c-1.295 3.885 1.597 7.897 5.692 7.897z"/><path d="m317.484 347.082h-23c5.253 0 7.97 6.272 4.377 10.104l-83.414 88.975-2.76 11.041c-1.501 6.003 5.966 10.073 10.198 5.559l98.976-105.575c3.593-3.833.876-10.104-4.377-10.104z"/></g><g><path d="m347.9 255.182h-198.8c-4.143 0-7.5-3.357-7.5-7.5s3.357-7.5 7.5-7.5h198.8c4.143 0 7.5 3.357 7.5 7.5s-3.357 7.5-7.5 7.5z" fill="#99e2fc"/></g><path d="m231.934 273.315c-4.143 0-7.5 3.357-7.5 7.5s3.357 7.5 7.5 7.5h52.722l5-15z" fill="#fb0"/></g></svg>