<svg id="icons" enable-background="new 0 0 64 64" height="512" viewBox="0 0 64 64" width="512" xmlns="http://www.w3.org/2000/svg"><path d="m1 58c0 .55.45 1 1 1h60c.55 0 1-.45 1-1v-49h-62z" fill="#e6e9ed"/><path d="m63 7v2h-62v-2c0-1.109.89-2 2-2h58c1.11 0 2 .891 2 2z" fill="#ccd1d9"/><g fill="#e6e9ed"><path d="m4.006 5.998h-.01c-.552 0-.995.447-.995 1 0 .552.453 1 1.005 1 .553 0 1-.448 1-1 0-.553-.447-1-1-1z"/><path d="m7.005 5.998h-.01c-.553 0-.995.447-.995 1 0 .552.452 1 1.005 1s1-.448 1-1c0-.553-.447-1-1-1z"/><path d="m10.008 5.998h-.01c-.552 0-.995.447-.995 1 0 .552.453 1 1.005 1 .553 0 1-.448 1-1 0-.553-.447-1-1-1z"/></g><path d="m41.9 16.095c5.47 5.469 5.47 14.33 0 19.799-5.471 5.471-14.33 5.471-19.801 0-5.47-5.469-5.47-14.33 0-19.799 5.471-5.471 14.331-5.471 19.801 0z" fill="#ed5565"/><path d="m41.9 16.095c-3.118-3.119-7.337-4.453-11.402-4.016 3.067.328 6.047 1.662 8.399 4.016 5.47 5.469 5.47 14.33 0 19.799-2.353 2.354-5.332 3.686-8.399 4.016 4.065.436 8.284-.896 11.402-4.016 5.47-5.469 5.47-14.331 0-19.799z" fill="#da4453"/><path d="m55.005 45.007h-46.014c-.553 0-1-.447-1-1s.447-1 1-1h46.014c.553 0 1 .447 1 1s-.447 1-1 1z" fill="#ccd1d9"/><path d="m46.003 48.008h-28.01c-.553 0-1-.447-1-1s.447-1 1-1h28.01c.553 0 1 .447 1 1s-.447 1-1 1z" fill="#ccd1d9"/><path d="m27.051 31.945c-.256 0-.512-.098-.707-.293-.391-.391-.391-1.023 0-1.414l9.897-9.896c.391-.391 1.023-.391 1.414 0s.391 1.023 0 1.414l-9.897 9.896c-.195.196-.451.293-.707.293z" fill="#fff"/><path d="m36.948 31.945c-.256 0-.512-.098-.707-.293l-9.897-9.896c-.391-.391-.391-1.023 0-1.414s1.023-.391 1.414 0l9.897 9.896c.391.391.391 1.023 0 1.414-.195.196-.451.293-.707.293z" fill="#fff"/><path d="m21.491 52.504h21.014v1.001h-21.014z" fill="#545c66"/><path d="m40.505 51.505h-17.014c-1.103 0-2 .897-2 2s.897 2 2 2h17.014c1.103 0 2-.897 2-2s-.898-2-2-2z" fill="#545c66"/><path d="m40.505 50.504h-17.014c-1.103 0-2 .897-2 2s.897 2 2 2h17.014c1.103 0 2-.897 2-2s-.898-2-2-2z" fill="#656d78"/></svg>